<svg xmlns="http://www.w3.org/2000/svg" viewBox="0 0 24 24" fill="none" height="100%"><path d="M11.9999 24C17.2173 24 21.3913 20.2626 21.3913 15.6522V13.1006C21.3913 7.67227 18.1944 2.7531 13.2339 0.548444C12.6536 0.290518 11.9963 0.715391 11.9489 1.34869C11.7812 3.59133 11.1291 6.72249 8.99995 8C8.32981 7.66493 7.60587 6.39738 7.17363 5.53325C6.93999 5.06616 6.39023 4.81272 5.94427 5.08452C2.8687 6.95897 2.60864 12.6307 2.60864 15.6522C2.60864 19.9744 6.78256 24 11.9999 24Z" fill="url(#paint0_radial_3710_2968)"/><g filter="url(#filter0_i_3710_2968)"><path d="M18.2609 15.6523C18.2609 19.1101 15.4578 21.9132 12 21.9132C8.54222 21.9132 5.73914 19.1101 5.73914 15.6523C5.73914 12.426 10.2815 10.6781 12.5849 6.64403C12.8392 6.19865 13.4258 6.05976 13.7935 6.41732C15.2371 7.8212 18.2609 11.2832 18.2609 15.6523Z" fill="url(#paint1_radial_3710_2968)"/></g><g filter="url(#filter1_i_3710_2968)"><path d="M1 7.29033C1 8.78684 2.11929 10 3.5 10C4.88071 10 6 8.78684 6 7.29033C6 5.79381 4.5 5.5 3.5 5C3.06565 4.78282 2.91429 4.37698 2.88203 3.98735C2.84804 3.57673 2.45333 3.23878 2.16522 3.53332C1.30788 4.40982 1 6.02092 1 7.29033Z" fill="url(#paint2_radial_3710_2968)"/></g><g filter="url(#filter2_i_3710_2968)"><path d="M21 4.5C21 5.56894 20.3333 7 19 7C17.8954 7 17 6.13346 17 5.06452C17 3.99558 17.5333 3.60714 18.3333 3.25C18.8749 3.00825 19.172 2.52104 19.3075 2.23144C19.366 2.10646 19.508 2.0306 19.636 2.08232C20.653 2.4935 21 3.42383 21 4.5Z" fill="url(#paint3_radial_3710_2968)"/></g><defs><filter id="filter0_i_3710_2968" x="5.73914" y="5.17088" width="12.7826" height="16.7422" filterUnits="userSpaceOnUse" color-interpolation-filters="sRGB"><feFlood flood-opacity="0" result="BackgroundImageFix"/><feBlend mode="normal" in="SourceGraphic" in2="BackgroundImageFix" result="shape"/><feColorMatrix in="SourceAlpha" type="matrix" values="0 0 0 0 0 0 0 0 0 0 0 0 0 0 0 0 0 0 127 0" result="hardAlpha"/><feOffset dx="0.26087" dy="-1.04348"/><feGaussianBlur stdDeviation="0.521739"/><feComposite in2="hardAlpha" operator="arithmetic" k2="-1" k3="1"/><feColorMatrix type="matrix" values="0 0 0 0 1 0 0 0 0 0.9 0 0 0 0 0.943902 0 0 0 0.3 0"/><feBlend mode="normal" in2="shape" result="effect1_innerShadow_3710_2968"/></filter><filter id="filter1_i_3710_2968" x="1" y="2.3784" width="5.26087" height="7.6216" filterUnits="userSpaceOnUse" color-interpolation-filters="sRGB"><feFlood flood-opacity="0" result="BackgroundImageFix"/><feBlend mode="normal" in="SourceGraphic" in2="BackgroundImageFix" result="shape"/><feColorMatrix in="SourceAlpha" type="matrix" values="0 0 0 0 0 0 0 0 0 0 0 0 0 0 0 0 0 0 127 0" result="hardAlpha"/><feOffset dx="0.26087" dy="-1.04348"/><feGaussianBlur stdDeviation="0.521739"/><feComposite in2="hardAlpha" operator="arithmetic" k2="-1" k3="1"/><feColorMatrix type="matrix" values="0 0 0 0 1 0 0 0 0 0.9 0 0 0 0 0.943902 0 0 0 0.3 0"/><feBlend mode="normal" in2="shape" result="effect1_innerShadow_3710_2968"/></filter><filter id="filter2_i_3710_2968" x="17" y="1.02244" width="4.26087" height="5.97756" filterUnits="userSpaceOnUse" color-interpolation-filters="sRGB"><feFlood flood-opacity="0" result="BackgroundImageFix"/><feBlend mode="normal" in="SourceGraphic" in2="BackgroundImageFix" result="shape"/><feColorMatrix in="SourceAlpha" type="matrix" values="0 0 0 0 0 0 0 0 0 0 0 0 0 0 0 0 0 0 127 0" result="hardAlpha"/><feOffset dx="0.26087" dy="-1.04348"/><feGaussianBlur stdDeviation="0.521739"/><feComposite in2="hardAlpha" operator="arithmetic" k2="-1" k3="1"/><feColorMatrix type="matrix" values="0 0 0 0 1 0 0 0 0 0.9 0 0 0 0 0.943902 0 0 0 0.3 0"/><feBlend mode="normal" in2="shape" result="effect1_innerShadow_3710_2968"/></filter><radialGradient id="paint0_radial_3710_2968" cx="0" cy="0" r="1" gradientUnits="userSpaceOnUse" gradientTransform="translate(11.9999 19) rotate(-77.7613) scale(16.3216 16.9737)"><stop offset="0.0940858" stop-color="#FF66D9"/><stop offset="0.38072" stop-color="#CE3A00"/><stop offset="0.619868" stop-color="#E50A14"/><stop offset="1" stop-color="#FF661D"/></radialGradient><radialGradient id="paint1_radial_3710_2968" cx="0" cy="0" r="1" gradientUnits="userSpaceOnUse" gradientTransform="translate(12 22.0001) rotate(-79.6952) scale(11.1803)"><stop stop-color="#FFCA45" stop-opacity="0.16"/><stop offset="0.588314" stop-color="#FFA10B"/><stop offset="1" stop-color="#FF661D"/></radialGradient><radialGradient id="paint2_radial_3710_2968" cx="0" cy="0" r="1" gradientUnits="userSpaceOnUse" gradientTransform="translate(5.5 9) rotate(-131.186) scale(5.31507 2.39989)"><stop stop-color="#FFCA45"/><stop offset="0.588314" stop-color="#FFA10B"/><stop offset="1" stop-color="#FF661D"/></radialGradient><radialGradient id="paint3_radial_3710_2968" cx="0" cy="0" r="1" gradientUnits="userSpaceOnUse" gradientTransform="translate(17.4 6.28571) rotate(-45.5787) scale(4.00041 1.82204)"><stop stop-color="#FFCA45"/><stop offset="0.588314" stop-color="#FFA10B"/><stop offset="1" stop-color="#FF661D"/></radialGradient></defs></svg>